<svg xmlns="http://www.w3.org/2000/svg" viewBox="0 0 128 128" width="128" height="128">
  <defs>
    <linearGradient id="g" x1="0" y1="0" x2="1" y2="1">
      <stop offset="0" stop-color="#34D399"/>
      <stop offset="1" stop-color="#2563EB"/>
    </linearGradient>
  </defs>
  <rect width="128" height="128" rx="28" fill="#0F172A"/>
  <path d="M64 26c-24 0-42 15.5-42 35 0 10.9 6 20.6 15.5 27-.9 5.3-3.5 10-7.5 13.6 7.4-.6 14.1-3.3 19.6-7.4 4.6 1.2 9.4 1.8 14.4 1.8 24 0 42-15.5 42-35S88 26 64 26z" fill="url(#g)"/>
  <circle cx="46" cy="61" r="5.5" fill="#FFFFFF"/>
  <circle cx="64" cy="61" r="5.5" fill="#FFFFFF"/>
  <circle cx="82" cy="61" r="5.5" fill="#FFFFFF"/>
</svg>
